<svg width="32" height="32" viewBox="0 0 32 32" fill="none" xmlns="http://www.w3.org/2000/svg">
  <!-- Main container with border only -->
  <rect x="2" y="2" width="28" height="28" fill="none" stroke="#1d1d1f" stroke-width="2" rx="4"/>

  <!-- QR Code Pattern -->
  <g transform="translate(6, 6)">
    <!-- Corner squares with white background for contrast -->
    <rect x="0" y="0" width="6" height="6" fill="white" rx="0.5"/>
    <rect x="0.5" y="0.5" width="5" height="5" fill="#1d1d1f" rx="0.3"/>
    <rect x="1.5" y="1.5" width="3" height="3" fill="white" rx="0.2"/>
    <rect x="2.5" y="2.5" width="1" height="1" fill="#1d1d1f" rx="0.1"/>

    <rect x="14" y="0" width="6" height="6" fill="white" rx="0.5"/>
    <rect x="14.5" y="0.5" width="5" height="5" fill="#1d1d1f" rx="0.3"/>
    <rect x="15.5" y="1.5" width="3" height="3" fill="white" rx="0.2"/>
    <rect x="16.5" y="2.5" width="1" height="1" fill="#1d1d1f" rx="0.1"/>

    <rect x="0" y="14" width="6" height="6" fill="white" rx="0.5"/>
    <rect x="0.5" y="14.5" width="5" height="5" fill="#1d1d1f" rx="0.3"/>
    <rect x="1.5" y="15.5" width="3" height="3" fill="white" rx="0.2"/>
    <rect x="2.5" y="16.5" width="1" height="1" fill="#1d1d1f" rx="0.1"/>

    <!-- Data pattern with white backgrounds -->
    <rect x="7.8" y="0.8" width="1.6" height="1.6" fill="white" rx="0.3"/>
    <rect x="8" y="1" width="1.2" height="1.2" fill="#1d1d1f" rx="0.2"/>
    <rect x="10.8" y="0.8" width="1.6" height="1.6" fill="white" rx="0.3"/>
    <rect x="11" y="1" width="1.2" height="1.2" fill="#1d1d1f" rx="0.2"/>

    <rect x="0.8" y="7.8" width="1.6" height="1.6" fill="white" rx="0.3"/>
    <rect x="1" y="8" width="1.2" height="1.2" fill="#1d1d1f" rx="0.2"/>
    <rect x="7.8" y="7.8" width="1.6" height="1.6" fill="white" rx="0.3"/>
    <rect x="8" y="8" width="1.2" height="1.2" fill="#1d1d1f" rx="0.2"/>
    <rect x="10.8" y="7.8" width="1.6" height="1.6" fill="white" rx="0.3"/>
    <rect x="11" y="8" width="1.2" height="1.2" fill="#1d1d1f" rx="0.2"/>
    <rect x="14.8" y="7.8" width="1.6" height="1.6" fill="white" rx="0.3"/>
    <rect x="15" y="8" width="1.2" height="1.2" fill="#1d1d1f" rx="0.2"/>
    <rect x="17.8" y="7.8" width="1.6" height="1.6" fill="white" rx="0.3"/>
    <rect x="18" y="8" width="1.2" height="1.2" fill="#1d1d1f" rx="0.2"/>

    <rect x="7.8" y="10.8" width="1.6" height="1.6" fill="white" rx="0.3"/>
    <rect x="8" y="11" width="1.2" height="1.2" fill="#1d1d1f" rx="0.2"/>
    <rect x="14.8" y="10.8" width="1.6" height="1.6" fill="white" rx="0.3"/>
    <rect x="15" y="11" width="1.2" height="1.2" fill="#1d1d1f" rx="0.2"/>
    <rect x="17.8" y="10.8" width="1.6" height="1.6" fill="white" rx="0.3"/>
    <rect x="18" y="11" width="1.2" height="1.2" fill="#1d1d1f" rx="0.2"/>

    <rect x="7.8" y="14.8" width="1.6" height="1.6" fill="white" rx="0.3"/>
    <rect x="8" y="15" width="1.2" height="1.2" fill="#1d1d1f" rx="0.2"/>
    <rect x="10.8" y="14.8" width="1.6" height="1.6" fill="white" rx="0.3"/>
    <rect x="11" y="15" width="1.2" height="1.2" fill="#1d1d1f" rx="0.2"/>
    <rect x="14.8" y="14.8" width="1.6" height="1.6" fill="white" rx="0.3"/>
    <rect x="15" y="15" width="1.2" height="1.2" fill="#1d1d1f" rx="0.2"/>

    <rect x="7.8" y="17.8" width="1.6" height="1.6" fill="white" rx="0.3"/>
    <rect x="8" y="18" width="1.2" height="1.2" fill="#1d1d1f" rx="0.2"/>
    <rect x="14.8" y="17.8" width="1.6" height="1.6" fill="white" rx="0.3"/>
    <rect x="15" y="18" width="1.2" height="1.2" fill="#1d1d1f" rx="0.2"/>
  </g>

  <!-- WiFi Signal Icon -->
  <g transform="translate(22, 22)">
    <!-- White background for contrast -->
    <circle cx="3" cy="4.5" r="4" fill="white" opacity="0.9"/>
    <path d="M0 6 C0 4.5, 1.5 3, 3 3 C4.5 3, 6 4.5, 6 6" stroke="#1d1d1f" stroke-width="0.8" fill="none"/>
    <path d="M1 6 C1 5.2, 1.8 4.5, 3 4.5 C4.2 4.5, 5 5.2, 5 6" stroke="#1d1d1f" stroke-width="0.8" fill="none"/>
    <circle cx="3" cy="6" r="0.6" fill="#1d1d1f"/>
  </g>
</svg>
