<svg width="1200" height="630" viewBox="0 0 1200 630" fill="none" xmlns="http://www.w3.org/2000/svg">
  <!-- Background -->
  <rect width="1200" height="630" fill="white"/>

  <!-- Background Pattern -->
  <defs>
    <pattern id="dots" x="0" y="0" width="60" height="60" patternUnits="userSpaceOnUse">
      <circle cx="30" cy="30" r="1.5" fill="rgba(29,29,31,0.08)"/>
    </pattern>
  </defs>
  <rect width="1200" height="630" fill="url(#dots)"/>

  <!-- Main Logo -->
  <g transform="translate(200, 200)">
    <circle cx="115" cy="115" r="115" fill="white" stroke="#1d1d1f" stroke-width="4"/>
    <circle cx="115" cy="115" r="100" fill="white"/>

    <!-- QR Code Pattern -->
    <g transform="translate(65, 65)">
      <!-- Corner squares -->
      <rect x="0" y="0" width="30" height="30" fill="#1d1d1f" rx="3"/>
      <rect x="3" y="3" width="24" height="24" fill="white" rx="2"/>
      <rect x="9" y="9" width="12" height="12" fill="#1d1d1f" rx="2"/>

      <rect x="70" y="0" width="30" height="30" fill="#1d1d1f" rx="3"/>
      <rect x="73" y="3" width="24" height="24" fill="white" rx="2"/>
      <rect x="79" y="9" width="12" height="12" fill="#1d1d1f" rx="2"/>

      <rect x="0" y="70" width="30" height="30" fill="#1d1d1f" rx="3"/>
      <rect x="3" y="73" width="24" height="24" fill="white" rx="2"/>
      <rect x="9" y="79" width="12" height="12" fill="#1d1d1f" rx="2"/>

      <!-- Data pattern -->
      <rect x="35" y="8" width="6" height="6" fill="#1d1d1f" rx="1"/>
      <rect x="50" y="8" width="6" height="6" fill="#1d1d1f" rx="1"/>
      <rect x="65" y="8" width="6" height="6" fill="#1d1d1f" rx="1"/>

      <rect x="8" y="35" width="6" height="6" fill="#1d1d1f" rx="1"/>
      <rect x="35" y="35" width="6" height="6" fill="#1d1d1f" rx="1"/>
      <rect x="50" y="35" width="6" height="6" fill="#1d1d1f" rx="1"/>
      <rect x="65" y="35" width="6" height="6" fill="#1d1d1f" rx="1"/>
      <rect x="80" y="35" width="6" height="6" fill="#1d1d1f" rx="1"/>
      <rect x="92" y="35" width="6" height="6" fill="#1d1d1f" rx="1"/>

      <rect x="35" y="50" width="6" height="6" fill="#1d1d1f" rx="1"/>
      <rect x="65" y="50" width="6" height="6" fill="#1d1d1f" rx="1"/>
      <rect x="92" y="50" width="6" height="6" fill="#1d1d1f" rx="1"/>

      <rect x="8" y="65" width="6" height="6" fill="#1d1d1f" rx="1"/>
      <rect x="35" y="65" width="6" height="6" fill="#1d1d1f" rx="1"/>
      <rect x="80" y="65" width="6" height="6" fill="#1d1d1f" rx="1"/>

      <rect x="35" y="80" width="6" height="6" fill="#1d1d1f" rx="1"/>
      <rect x="50" y="80" width="6" height="6" fill="#1d1d1f" rx="1"/>
      <rect x="80" y="80" width="6" height="6" fill="#1d1d1f" rx="1"/>
      <rect x="92" y="80" width="6" height="6" fill="#1d1d1f" rx="1"/>
    </g>

    <!-- WiFi Signal -->
    <g transform="translate(180, 180)">
      <path d="M0 30 C0 22.5, 7.5 15, 15 15 C22.5 15, 30 22.5, 30 30" stroke="#1d1d1f" stroke-width="3" fill="none"/>
      <path d="M5 30 C5 25, 10 20, 15 20 C20 20, 25 25, 25 30" stroke="#1d1d1f" stroke-width="3" fill="none"/>
      <path d="M10 30 C10 27.5, 12.5 25, 15 25 C17.5 25, 20 27.5, 20 30" stroke="#1d1d1f" stroke-width="3" fill="none"/>
      <circle cx="15" cy="30" r="3" fill="#1d1d1f"/>
    </g>
  </g>

  <!-- Title -->
  <text x="500" y="280" font-family="SF Pro Display, -apple-system, BlinkMacSystemFont, sans-serif" font-size="72" font-weight="700" fill="#1d1d1f">WiFi QR Generator</text>

  <!-- Subtitle -->
  <text x="500" y="340" font-family="SF Pro Display, -apple-system, BlinkMacSystemFont, sans-serif" font-size="32" font-weight="400" fill="#86868b">Create beautiful QR codes for instant WiFi connection</text>

  <!-- Features -->
  <g transform="translate(500, 380)">
    <text x="0" y="30" font-family="SF Pro Display, -apple-system, BlinkMacSystemFont, sans-serif" font-size="24" font-weight="500" fill="#1d1d1f">✨ Real-time customization</text>
    <text x="0" y="65" font-family="SF Pro Display, -apple-system, BlinkMacSystemFont, sans-serif" font-size="24" font-weight="500" fill="#1d1d1f">🎨 Logo & branding support</text>
    <text x="0" y="100" font-family="SF Pro Display, -apple-system, BlinkMacSystemFont, sans-serif" font-size="24" font-weight="500" fill="#1d1d1f">📱 Minimalist design</text>
    <text x="0" y="135" font-family="SF Pro Display, -apple-system, BlinkMacSystemFont, sans-serif" font-size="24" font-weight="500" fill="#1d1d1f">💾 Multiple download formats</text>
  </g>

  <!-- URL -->
  <text x="500" y="580" font-family="SF Pro Display, -apple-system, BlinkMacSystemFont, sans-serif" font-size="28" font-weight="600" fill="#86868b">wifiqr.net</text>


</svg>
